<svg width="24" height="26" viewBox="0 0 24 26" fill="none" xmlns="http://www.w3.org/2000/svg">
<path d="M23.9739 22.8832L21.939 7.46031C21.8782 7.18191 21.6397 6.96005 21.3403 6.96005H16.9689V5.40056C16.9689 2.17064 15.0534 0 12.1789 0C9.30435 0 7.38881 2.17064 7.38881 5.40056V6.96005H2.6596C2.36022 6.96005 2.12165 7.18191 2.06085 7.46031L0.0260358 22.8832C-0.0932482 23.6619 0.206129 24.4971 0.744063 25.0539C1.28201 25.6673 2.12168 26 2.95898 26H20.9827C21.82 26 22.6597 25.665 23.1976 25.0539C23.794 24.4992 24.0934 23.664 23.9742 22.8832H23.9739ZM8.58644 5.4547C8.58644 3.44931 9.54541 1.16775 12.179 1.16775C14.8125 1.16775 15.7715 3.45154 15.7715 5.4547V7.0142H8.58644V5.4547ZM22.3578 24.3315C21.9976 24.6664 21.5205 24.8883 21.041 24.8883H2.95922C2.42127 24.8883 1.94181 24.6664 1.64244 24.3315C1.34306 23.9965 1.16297 23.4963 1.22377 22.996L3.19781 8.1277H20.8L22.7764 23.0506C22.8372 23.4965 22.6571 23.9967 22.3577 24.3317L22.3578 24.3315Z" fill="#A91D3A"/>
</svg>
