<svg width="24" height="24" viewBox="0 0 24 24" fill="none" xmlns="http://www.w3.org/2000/svg">
<mask id="mask0_2148_288" style="mask-type:alpha" maskUnits="userSpaceOnUse" x="0" y="0" width="24" height="24">
<rect x="0.5" y="0.5" width="23" height="23" fill="#D9D9D9" stroke="#A91D3A"/>
</mask>
<g mask="url(#mask0_2148_288)">
<path d="M5.5 6V5.5H5H4.5V4.5H9H9.5V4V3.5H14.5V4V4.5H15H19.5V5.5H19H18.5V6V19C18.5 19.4163 18.3576 19.7603 18.0589 20.0589C17.7603 20.3576 17.4163 20.5 17 20.5H7C6.58366 20.5 6.2397 20.3576 5.94105 20.0589C5.64241 19.7603 5.5 19.4163 5.5 19V6ZM17.5 6V5.5H17H7H6.5V6V19V19.5H7H17H17.5V19V6ZM10.5 8.5V16.5H9.5V8.5H10.5ZM14.5 8.5V16.5H13.5V8.5H14.5Z" fill="#A91D3A" stroke="#A91D3A"/>
</g>
</svg>
