<svg width="19" height="16" viewBox="0 0 19 16" fill="none" xmlns="http://www.w3.org/2000/svg">
<path id="Search" fill-rule="evenodd" clip-rule="evenodd" d="M17.7607 16C18.4122 16 18.8733 15.5792 18.8733 15.0405C18.8733 14.788 18.773 14.5439 18.5525 14.3672L13.8317 10.3945C14.824 9.30037 15.4153 7.94529 15.4153 6.47238C15.4153 2.91215 11.9474 0 7.70767 0C3.47797 0 0 2.90373 0 6.47238C0 10.0326 3.46795 12.9448 7.70767 12.9448C9.38151 12.9448 10.925 12.4903 12.1879 11.7328L16.9388 15.7223C17.1593 15.9074 17.45 16 17.7607 16ZM7.70767 11.5476C4.40008 11.5476 1.66381 9.24986 1.66381 6.47238C1.66381 3.69489 4.40008 1.39716 7.70767 1.39716C11.0153 1.39716 13.7515 3.69489 13.7515 6.47238C13.7515 9.24986 11.0153 11.5476 7.70767 11.5476Z" fill="black"/>
</svg>
