<svg width="25" height="25" viewBox="0 0 25 25" fill="none" xmlns="http://www.w3.org/2000/svg">
<path d="M12.5871 24.2591C19.1829 24.2591 24.5326 18.9959 24.5326 12.5C24.5326 6.00418 19.1829 0.740942 12.5871 0.740942C5.99127 0.740942 0.641577 6.00418 0.641577 12.5C0.641577 18.9959 5.99127 24.2591 12.5871 24.2591Z" stroke="#5C5C5C" stroke-width="0.2"/>
<path d="M12.5871 13.5271L9.60148 10.0988C9.3812 9.84582 9.02405 9.84582 8.80376 10.0988C8.58348 10.3517 8.58348 10.7618 8.80376 11.0148L12.1882 14.9012C12.4085 15.1541 12.7656 15.1541 12.9859 14.9012L16.3703 11.0148C16.5906 10.7618 16.5906 10.3517 16.3703 10.0988C16.1501 9.84582 15.7929 9.84582 15.5726 10.0988L12.5871 13.5271Z" fill="#565656"/>
<mask id="mask0_2059_535" style="mask-type:luminance" maskUnits="userSpaceOnUse" x="8" y="9" width="9" height="7">
<path d="M12.5871 13.5271L9.60148 10.0988C9.3812 9.84582 9.02405 9.84582 8.80376 10.0988C8.58348 10.3517 8.58348 10.7618 8.80376 11.0148L12.1882 14.9012C12.4085 15.1541 12.7656 15.1541 12.9859 14.9012L16.3703 11.0148C16.5906 10.7618 16.5906 10.3517 16.3703 10.0988C16.1501 9.84582 15.7929 9.84582 15.5726 10.0988L12.5871 13.5271Z" fill="white"/>
</mask>
<g mask="url(#mask0_2059_535)">
</g>
</svg>
