<svg width="62" height="60" viewBox="0 0 62 60" fill="none" xmlns="http://www.w3.org/2000/svg">
<path opacity="0.21" fill-rule="evenodd" clip-rule="evenodd" d="M0.509521 30V37C0.509521 49.7025 10.807 60 23.5095 60H31.0756H38.6416C51.3442 60 61.6416 49.7025 61.6416 37V30V23C61.6416 10.2975 51.3442 0 38.6416 0H31.0756H23.5095C10.807 0 0.509521 10.2975 0.509521 23V30Z" fill="#FEC53D"/>
<path fill-rule="evenodd" clip-rule="evenodd" d="M15.7925 24.3165L28.9364 31.7646C29.0779 31.8448 29.2263 31.9027 29.3774 31.9395V46.3847L16.7299 39.0385C16.1489 38.701 15.7925 38.0876 15.7925 37.4249V24.3165ZM46.3586 24.1185V37.4249C46.3586 38.0876 46.0022 38.701 45.4211 39.0385L32.7737 46.3847V31.8129C32.8045 31.7978 32.835 31.7817 32.8652 31.7646L46.3586 24.1185Z" fill="#FEC53D"/>
<path opacity="0.499209" fill-rule="evenodd" clip-rule="evenodd" d="M16.2052 20.7014C16.3657 20.5024 16.5684 20.3343 16.8046 20.2108L30.1773 13.2201C30.7387 12.9266 31.412 12.9266 31.9734 13.2201L45.3461 20.2108C45.5282 20.306 45.6903 20.4277 45.8286 20.5697L31.1669 28.8778C31.0705 28.9325 30.9816 28.995 30.9006 29.064C30.8196 28.995 30.7308 28.9325 30.6343 28.8778L16.2052 20.7014Z" fill="#FEC53D"/>
</svg>
