<svg width="63" height="61" viewBox="0 0 63 61" fill="none" xmlns="http://www.w3.org/2000/svg">
<path opacity="0.21" fill-rule="evenodd" clip-rule="evenodd" d="M0.679565 30.7143V37.528C0.679565 50.2305 10.977 60.528 23.6796 60.528H31.5956H39.5116C52.2142 60.528 62.5116 50.2305 62.5116 37.528V30.7143V23.9006C62.5116 11.1981 52.2142 0.900635 39.5116 0.900635H31.5956H23.6796C10.977 0.900635 0.679565 11.1981 0.679565 23.9006V30.7143Z" fill="#4AD991"/>
<path d="M20.374 41.5356H44.4198C45.3051 41.5356 46.0228 42.2277 46.0228 43.0815C46.0228 43.9352 45.3051 44.6274 44.4198 44.6274H18.7709C17.8856 44.6274 17.1678 43.9352 17.1678 43.0815V18.3472C17.1678 17.4934 17.8856 16.8013 18.7709 16.8013C19.6562 16.8013 20.374 17.4934 20.374 18.3472V41.5356Z" fill="#4AD991"/>
<path opacity="0.5" d="M26.3529 34.8634C25.7473 35.4862 24.7329 35.5178 24.087 34.9338C23.4411 34.3499 23.4084 33.3716 24.0139 32.7488L30.0253 26.5652C30.611 25.9628 31.5841 25.9106 32.2354 26.4465L36.98 30.3509L43.1618 22.7998C43.7104 22.1297 44.7185 22.0154 45.4133 22.5444C46.1082 23.0734 46.2268 24.0455 45.6782 24.7157L38.4645 33.5272C37.901 34.2155 36.8574 34.3145 36.1657 33.7453L31.318 29.7561L26.3529 34.8634Z" fill="#4AD991"/>
</svg>
