<svg width="59" height="60" viewBox="0 0 59 60" fill="none" xmlns="http://www.w3.org/2000/svg">
<path opacity="0.3" fill-rule="evenodd" clip-rule="evenodd" d="M0.750244 30V37C0.750244 49.7025 11.0477 60 23.7502 60H29.6788H35.6074C48.3099 60 58.6074 49.7025 58.6074 37V30V23C58.6074 10.2975 48.31 0 35.6074 0H29.6788H23.7502C11.0477 0 0.750244 10.2975 0.750244 23V30Z" fill="#FF9066"/>
<mask id="mask0_136_318" style="mask-type:alpha" maskUnits="userSpaceOnUse" x="17" y="17" width="30" height="30">
<rect x="17.6228" y="17.556" width="29" height="29" fill="#D9D9D9"/>
</mask>
<g mask="url(#mask0_136_318)">
<path d="M24.8728 41.7226C23.8659 41.7226 23.01 41.3702 22.3051 40.6653C21.6003 39.9605 21.2478 39.1046 21.2478 38.0976H18.8312V24.8059C18.8312 24.1414 19.0678 23.5724 19.5411 23.0992C20.0143 22.6259 20.5833 22.3893 21.2478 22.3893H38.1645V27.2226H41.7895L45.4145 32.0559V38.0976H42.9978C42.9978 39.1046 42.6454 39.9605 41.9406 40.6653C41.2357 41.3702 40.3798 41.7226 39.3728 41.7226C38.3659 41.7226 37.51 41.3702 36.8051 40.6653C36.1003 39.9605 35.7478 39.1046 35.7478 38.0976H28.4978C28.4978 39.1046 28.1454 39.9605 27.4406 40.6653C26.7357 41.3702 25.8798 41.7226 24.8728 41.7226ZM24.8728 39.306C25.2152 39.306 25.5022 39.1902 25.7338 38.9586C25.9654 38.727 26.0812 38.44 26.0812 38.0976C26.0812 37.7553 25.9654 37.4683 25.7338 37.2367C25.5022 37.0051 25.2152 36.8893 24.8728 36.8893C24.5305 36.8893 24.2435 37.0051 24.0119 37.2367C23.7803 37.4683 23.6645 37.7553 23.6645 38.0976C23.6645 38.44 23.7803 38.727 24.0119 38.9586C24.2435 39.1902 24.5305 39.306 24.8728 39.306ZM21.2478 35.6809H22.2145C22.5569 35.3184 22.9496 35.0264 23.3926 34.8049C23.8357 34.5834 24.3291 34.4726 24.8728 34.4726C25.4166 34.4726 25.91 34.5834 26.3531 34.8049C26.7961 35.0264 27.1888 35.3184 27.5312 35.6809H35.7478V24.8059H21.2478V35.6809ZM39.3728 39.306C39.7152 39.306 40.0022 39.1902 40.2338 38.9586C40.4654 38.727 40.5812 38.44 40.5812 38.0976C40.5812 37.7553 40.4654 37.4683 40.2338 37.2367C40.0022 37.0051 39.7152 36.8893 39.3728 36.8893C39.0305 36.8893 38.7435 37.0051 38.5119 37.2367C38.2803 37.4683 38.1645 37.7553 38.1645 38.0976C38.1645 38.44 38.2803 38.727 38.5119 38.9586C38.7435 39.1902 39.0305 39.306 39.3728 39.306ZM38.1645 33.2643H43.2999L40.5812 29.6393H38.1645V33.2643Z" fill="#FF9066"/>
</g>
</svg>
