<svg width="63" height="61" viewBox="0 0 63 61" fill="none" xmlns="http://www.w3.org/2000/svg">
<path opacity="0.21" fill-rule="evenodd" clip-rule="evenodd" d="M0.679443 30.7143V37.528C0.679443 50.2305 10.9769 60.528 23.6795 60.528H31.5955H39.5115C52.214 60.528 62.5115 50.2305 62.5115 37.528L62.5115 30.7143L62.5115 23.9006C62.5115 11.1981 52.214 0.900635 39.5115 0.900635H31.5955H23.6794C10.9769 0.900635 0.679443 11.1981 0.679443 23.9006V30.7143Z" fill="#8280FF"/>
<path opacity="0.587821" fill-rule="evenodd" clip-rule="evenodd" d="M21.9771 24.089C21.9771 27.0162 24.4378 29.3892 27.4732 29.3892C30.5087 29.3892 32.9694 27.0162 32.9694 24.089C32.9694 21.1618 30.5087 18.7888 27.4732 18.7888C24.4378 18.7888 21.9771 21.1618 21.9771 24.089ZM35.7175 29.3892C35.7175 31.5846 37.563 33.3644 39.8396 33.3644C42.1162 33.3644 43.9618 31.5846 43.9618 29.3892C43.9618 27.1938 42.1162 25.4141 39.8396 25.4141C37.563 25.4141 35.7175 27.1938 35.7175 29.3892Z" fill="#8280FF"/>
<path fill-rule="evenodd" clip-rule="evenodd" d="M27.4502 32.0394C20.9628 32.0394 15.6402 35.2546 15.1076 41.5787C15.0786 41.9232 15.7617 42.6398 16.1063 42.6398H38.8044C39.8366 42.6398 39.8527 41.8388 39.8366 41.5797C39.434 35.078 34.029 32.0394 27.4502 32.0394ZM47.3363 42.6397H42.0382C42.0382 39.6571 41.0163 36.9047 39.2918 34.6902C43.9724 34.7397 47.7941 37.0218 48.0817 41.8447C48.0933 42.039 48.0817 42.6397 47.3363 42.6397Z" fill="#8280FF"/>
</svg>
